<mxfile host="app.diagrams.net" agent="Mozilla/5.0 (Windows NT 10.0; Win64; x64) AppleWebKit/537.36 (KHTML, like Gecko) Chrome/130.0.0.0 Safari/537.36" version="24.8.4">
  <diagram name="Página-1" id="6RQ_jXw9nKkTjeeDQw3d">
    <mxGraphModel dx="1050" dy="522" grid="1" gridSize="10" guides="1" tooltips="1" connect="1" arrows="1" fold="1" page="1" pageScale="1" pageWidth="1169" pageHeight="827" math="0" shadow="0">
      <root>
        <mxCell id="0" />
        <mxCell id="1" parent="0" />
        <mxCell id="KoymEbLfs0Ak7RfALaiW-5" style="edgeStyle=orthogonalEdgeStyle;rounded=0;orthogonalLoop=1;jettySize=auto;html=1;" parent="1" source="KoymEbLfs0Ak7RfALaiW-11" target="KoymEbLfs0Ak7RfALaiW-7" edge="1">
          <mxGeometry relative="1" as="geometry">
            <mxPoint x="370" y="401" as="sourcePoint" />
          </mxGeometry>
        </mxCell>
        <mxCell id="KoymEbLfs0Ak7RfALaiW-6" style="edgeStyle=orthogonalEdgeStyle;rounded=0;orthogonalLoop=1;jettySize=auto;html=1;" parent="1" source="KoymEbLfs0Ak7RfALaiW-7" target="KoymEbLfs0Ak7RfALaiW-10" edge="1">
          <mxGeometry relative="1" as="geometry">
            <mxPoint x="560" y="401" as="targetPoint" />
          </mxGeometry>
        </mxCell>
        <mxCell id="KoymEbLfs0Ak7RfALaiW-7" value="Transferencia SFTP&lt;div&gt;Carpeta &lt;b&gt;/Facturas&lt;/b&gt;&lt;/div&gt;" style="verticalLabelPosition=bottom;verticalAlign=top;html=1;strokeWidth=2;shape=mxgraph.arrows2.arrow;dy=0.6;dx=40;notch=0;fillColor=#FFF2CC;" parent="1" vertex="1">
          <mxGeometry x="410" y="367.75" width="100" height="70" as="geometry" />
        </mxCell>
        <mxCell id="KoymEbLfs0Ak7RfALaiW-8" style="edgeStyle=orthogonalEdgeStyle;rounded=0;orthogonalLoop=1;jettySize=auto;html=1;" parent="1" source="KoymEbLfs0Ak7RfALaiW-9" target="KoymEbLfs0Ak7RfALaiW-11" edge="1">
          <mxGeometry relative="1" as="geometry">
            <mxPoint x="320" y="371" as="targetPoint" />
          </mxGeometry>
        </mxCell>
        <mxCell id="KoymEbLfs0Ak7RfALaiW-9" value="&lt;div&gt;Código Proveedor&lt;/div&gt;&lt;div&gt;# de Factura&lt;/div&gt;&lt;div&gt;&lt;span style=&quot;background-color: initial;&quot;&gt;Valor de Factura&lt;/span&gt;&lt;/div&gt;&lt;div&gt;&lt;span style=&quot;background-color: initial;&quot;&gt;Estado&lt;/span&gt;&lt;/div&gt;&lt;div&gt;&lt;span style=&quot;background-color: initial;&quot;&gt;Fecha de la Factura&lt;/span&gt;&lt;/div&gt;" style="shape=parallelogram;html=1;strokeWidth=2;perimeter=parallelogramPerimeter;whiteSpace=wrap;rounded=1;arcSize=12;size=0.23;" parent="1" vertex="1">
          <mxGeometry x="200.25" y="231" width="230" height="100" as="geometry" />
        </mxCell>
        <mxCell id="KoymEbLfs0Ak7RfALaiW-42" style="edgeStyle=orthogonalEdgeStyle;rounded=0;orthogonalLoop=1;jettySize=auto;html=1;" parent="1" source="KoymEbLfs0Ak7RfALaiW-10" target="KoymEbLfs0Ak7RfALaiW-14" edge="1">
          <mxGeometry relative="1" as="geometry">
            <Array as="points">
              <mxPoint x="700" y="400" />
              <mxPoint x="700" y="400" />
            </Array>
          </mxGeometry>
        </mxCell>
        <mxCell id="KoymEbLfs0Ak7RfALaiW-10" value="Servidor SFTP" style="sketch=0;outlineConnect=0;fontColor=#232F3E;gradientColor=none;fillColor=#01A88D;strokeColor=none;dashed=0;verticalLabelPosition=bottom;verticalAlign=top;align=center;html=1;fontSize=12;fontStyle=0;aspect=fixed;shape=mxgraph.aws4.transfer_for_sftp_resource;labelBackgroundColor=default;" parent="1" vertex="1">
          <mxGeometry x="580" y="363.75" width="76" height="78" as="geometry" />
        </mxCell>
        <mxCell id="KoymEbLfs0Ak7RfALaiW-11" value="DDMMAAAA-&lt;div&gt;Facturas Generadsa.csv&lt;/div&gt;" style="sketch=0;pointerEvents=1;shadow=0;dashed=0;html=1;strokeColor=none;fillColor=#505050;labelPosition=center;verticalLabelPosition=bottom;verticalAlign=top;outlineConnect=0;align=center;shape=mxgraph.office.users.csv_file;" parent="1" vertex="1">
          <mxGeometry x="280.5" y="376.5" width="69.5" height="52.5" as="geometry" />
        </mxCell>
        <mxCell id="KoymEbLfs0Ak7RfALaiW-16" style="edgeStyle=orthogonalEdgeStyle;rounded=0;orthogonalLoop=1;jettySize=auto;html=1;" parent="1" source="KoymEbLfs0Ak7RfALaiW-14" target="KoymEbLfs0Ak7RfALaiW-15" edge="1">
          <mxGeometry relative="1" as="geometry" />
        </mxCell>
        <mxCell id="KoymEbLfs0Ak7RfALaiW-14" value="Revisión de Archivo con Fecha Actual" style="shape=process;whiteSpace=wrap;html=1;backgroundOutline=1;fillColor=#B9E0A5;" parent="1" vertex="1">
          <mxGeometry x="700" y="372.75" width="120" height="60" as="geometry" />
        </mxCell>
        <mxCell id="KoymEbLfs0Ak7RfALaiW-18" style="edgeStyle=orthogonalEdgeStyle;rounded=0;orthogonalLoop=1;jettySize=auto;html=1;" parent="1" source="KoymEbLfs0Ak7RfALaiW-15" target="Il0k5O1ZrSXVbZnUkO41-3" edge="1">
          <mxGeometry relative="1" as="geometry" />
        </mxCell>
        <mxCell id="KoymEbLfs0Ak7RfALaiW-15" value="Validación de Facturas" style="shape=process;whiteSpace=wrap;html=1;backgroundOutline=1;fillColor=#B9E0A5;" parent="1" vertex="1">
          <mxGeometry x="880" y="372.75" width="120" height="60" as="geometry" />
        </mxCell>
        <mxCell id="KoymEbLfs0Ak7RfALaiW-37" style="edgeStyle=orthogonalEdgeStyle;rounded=0;orthogonalLoop=1;jettySize=auto;html=1;" parent="1" source="KoymEbLfs0Ak7RfALaiW-36" target="KoymEbLfs0Ak7RfALaiW-11" edge="1">
          <mxGeometry relative="1" as="geometry" />
        </mxCell>
        <mxCell id="KoymEbLfs0Ak7RfALaiW-36" value="Generación de archivo de facturas generadas" style="shape=process;whiteSpace=wrap;html=1;backgroundOutline=1;fillColor=#FFF2CC;" parent="1" vertex="1">
          <mxGeometry x="90" y="372.75" width="120" height="60" as="geometry" />
        </mxCell>
        <mxCell id="lo-O9_tCvZN_zgkiEt6u-2" style="edgeStyle=orthogonalEdgeStyle;rounded=0;orthogonalLoop=1;jettySize=auto;html=1;" parent="1" source="lo-O9_tCvZN_zgkiEt6u-6" target="KoymEbLfs0Ak7RfALaiW-36" edge="1">
          <mxGeometry relative="1" as="geometry">
            <mxPoint x="40" y="400.4848484848485" as="sourcePoint" />
          </mxGeometry>
        </mxCell>
        <mxCell id="lo-O9_tCvZN_zgkiEt6u-3" value="" style="ellipse;html=1;shape=endState;fillColor=#000000;strokeColor=#ff0000;" parent="1" vertex="1">
          <mxGeometry x="1270" y="387.75" width="30" height="30" as="geometry" />
        </mxCell>
        <mxCell id="lo-O9_tCvZN_zgkiEt6u-5" style="edgeStyle=orthogonalEdgeStyle;rounded=0;orthogonalLoop=1;jettySize=auto;html=1;" parent="1" source="Il0k5O1ZrSXVbZnUkO41-3" target="lo-O9_tCvZN_zgkiEt6u-3" edge="1">
          <mxGeometry relative="1" as="geometry" />
        </mxCell>
        <mxCell id="lo-O9_tCvZN_zgkiEt6u-6" value="" style="strokeWidth=2;html=1;shape=mxgraph.flowchart.start_2;whiteSpace=wrap;" parent="1" vertex="1">
          <mxGeometry x="30" y="387.75" width="30.5" height="30" as="geometry" />
        </mxCell>
        <mxCell id="Il0k5O1ZrSXVbZnUkO41-3" value="Base de Datos SFP" style="shape=cylinder3;whiteSpace=wrap;html=1;boundedLbl=1;backgroundOutline=1;size=15;labelPosition=center;verticalLabelPosition=bottom;align=center;verticalAlign=top;" parent="1" vertex="1">
          <mxGeometry x="1050" y="292.75" width="150" height="220" as="geometry" />
        </mxCell>
        <mxCell id="KoymEbLfs0Ak7RfALaiW-17" value="Registro de facturas en la base de datos" style="shape=process;whiteSpace=wrap;html=1;backgroundOutline=1;fillColor=#B9E0A5;" parent="1" vertex="1">
          <mxGeometry x="1065" y="347.75" width="120" height="60" as="geometry" />
        </mxCell>
        <mxCell id="Il0k5O1ZrSXVbZnUkO41-1" value="Generación de Pagos dentro de la base de Datos" style="shape=process;whiteSpace=wrap;html=1;backgroundOutline=1;fillColor=#B9E0A5;" parent="1" vertex="1">
          <mxGeometry x="1065" y="429" width="120" height="60" as="geometry" />
        </mxCell>
        <mxCell id="KoymEbLfs0Ak7RfALaiW-12" style="edgeStyle=orthogonalEdgeStyle;rounded=0;orthogonalLoop=1;jettySize=auto;html=1;" parent="1" source="KoymEbLfs0Ak7RfALaiW-17" target="Il0k5O1ZrSXVbZnUkO41-1" edge="1">
          <mxGeometry relative="1" as="geometry">
            <mxPoint x="780" y="452" as="sourcePoint" />
            <mxPoint x="1080" y="381.25" as="targetPoint" />
          </mxGeometry>
        </mxCell>
      </root>
    </mxGraphModel>
  </diagram>
</mxfile>
